<svg xmlns="http://www.w3.org/2000/svg" xmlns:xlink="http://www.w3.org/1999/xlink" viewBox="0 0 612.88 578.9"><defs><style>.cls-1{fill:url(#Degradado_sin_nombre_4);}.cls-2{fill:url(#Degradado_sin_nombre_2);}.cls-3{fill:url(#Degradado_sin_nombre_9);}.cls-4{fill:url(#Degradado_sin_nombre_4-2);}.cls-5{fill:url(#Degradado_sin_nombre_14);}.cls-6{fill:url(#Degradado_sin_nombre_14-2);}.cls-7{fill:url(#Degradado_sin_nombre_9-2);}.cls-8{fill:url(#Degradado_sin_nombre_14-3);}.cls-9{fill:url(#Degradado_sin_nombre_14-4);}.cls-10{fill:url(#Degradado_sin_nombre_15);}.cls-11{fill:url(#Degradado_sin_nombre_16);}.cls-12{fill:url(#Degradado_sin_nombre_14-5);}.cls-13{fill:url(#Degradado_sin_nombre_15-2);}.cls-14{fill:url(#Degradado_sin_nombre_16-2);}.cls-15{font-size:363.56px;fill:#fff;font-family:ArialRoundedMTBold, Arial Rounded MT Bold;}</style><linearGradient id="Degradado_sin_nombre_4" x1="219.09" y1="618.8" x2="349.2" y2="907.92" gradientTransform="translate(-17.91 -554.81) scale(1.07)" gradientUnits="userSpaceOnUse"><stop offset="0" stop-color="#2d95d2"/><stop offset="1" stop-color="#3366a9"/></linearGradient><linearGradient id="Degradado_sin_nombre_2" x1="137.19" y1="742.16" x2="472.47" y2="1104.57" gradientTransform="translate(-17.91 -554.81) scale(1.07)" gradientUnits="userSpaceOnUse"><stop offset="0" stop-color="#c0cccc"/><stop offset="1" stop-color="#94a7a7"/></linearGradient><linearGradient id="Degradado_sin_nombre_9" x1="304.06" y1="1056.46" x2="304.06" y2="1006.44" gradientTransform="translate(-17.91 -554.81) scale(1.07)" gradientUnits="userSpaceOnUse"><stop offset="0" stop-color="#c0cccc" stop-opacity="0"/><stop offset="0.18" stop-color="#adb9b9" stop-opacity="0.18"/><stop offset="1" stop-color="#5b6969"/></linearGradient><linearGradient id="Degradado_sin_nombre_4-2" x1="94.34" y1="812.48" x2="632.28" y2="1054.77" xlink:href="#Degradado_sin_nombre_4"/><linearGradient id="Degradado_sin_nombre_14" x1="304.06" y1="987.4" x2="304.06" y2="1017.47" gradientTransform="translate(-17.91 -554.81) scale(1.07)" gradientUnits="userSpaceOnUse"><stop offset="0" stop-color="#3679ba" stop-opacity="0"/><stop offset="1" stop-color="#354d96"/></linearGradient><linearGradient id="Degradado_sin_nombre_14-2" x1="406.05" y1="896.46" x2="65.24" y2="555.65" xlink:href="#Degradado_sin_nombre_14"/><linearGradient id="Degradado_sin_nombre_9-2" x1="268.21" y1="963.95" x2="212.37" y2="894.82" xlink:href="#Degradado_sin_nombre_9"/><linearGradient id="Degradado_sin_nombre_14-3" x1="548.75" y1="778.79" x2="433.72" y2="808.85" xlink:href="#Degradado_sin_nombre_14"/><linearGradient id="Degradado_sin_nombre_14-4" x1="265.85" y1="612.15" x2="221.29" y2="567.59" xlink:href="#Degradado_sin_nombre_14"/><linearGradient id="Degradado_sin_nombre_15" x1="222.88" y1="521.18" x2="222.88" y2="762.45" gradientTransform="translate(-17.91 -554.81) scale(1.07)" gradientUnits="userSpaceOnUse"><stop offset="0" stop-color="#e7b730"/><stop offset="0.27" stop-color="#e4b030"/><stop offset="0.66" stop-color="#dd9d31"/><stop offset="1" stop-color="#d68731"/></linearGradient><linearGradient id="Degradado_sin_nombre_16" x1="226.27" y1="559.2" x2="245.25" y2="559.2" gradientTransform="translate(-17.91 -554.81) scale(1.07)" gradientUnits="userSpaceOnUse"><stop offset="0" stop-color="#e7b730" stop-opacity="0"/><stop offset="0.2" stop-color="#e4b030" stop-opacity="0.2"/><stop offset="0.5" stop-color="#dd9b31" stop-opacity="0.5"/><stop offset="0.85" stop-color="#d37f31" stop-opacity="0.85"/><stop offset="1" stop-color="#cf7132"/></linearGradient><linearGradient id="Degradado_sin_nombre_14-5" x1="418.82" y1="612.16" x2="374.25" y2="567.59" xlink:href="#Degradado_sin_nombre_14"/><linearGradient id="Degradado_sin_nombre_15-2" x1="375.85" y1="521.18" x2="375.85" y2="762.45" xlink:href="#Degradado_sin_nombre_15"/><linearGradient id="Degradado_sin_nombre_16-2" x1="379.25" y1="559.2" x2="398.22" y2="559.2" xlink:href="#Degradado_sin_nombre_16"/></defs><title>Recurso 4</title><g id="Capa_2" data-name="Capa 2"><g id="Capa_1-2" data-name="Capa 1"><path class="cls-1" d="M542.83,34.48H70.05A24.06,24.06,0,0,0,46,58.53V554.85a24.06,24.06,0,0,0,24.06,24H542.83a24.06,24.06,0,0,0,24-24V58.53A24.05,24.05,0,0,0,542.83,34.48Z"/><path class="cls-2" d="M542.82,578.9H70.06a24,24,0,0,1-24.06-24V294.26H566.88V554.85A24,24,0,0,1,542.82,578.9Z"/><path class="cls-3" d="M542.82,578.9H70.06a24,24,0,0,1-24.06-24V504.34H566.88v50.51A24,24,0,0,1,542.82,578.9Z"/><path class="cls-4" d="M588.81,520.37H24.06A24,24,0,0,1,.62,491L46,292.66H566.88L612.26,491A24.05,24.05,0,0,1,588.81,520.37Z"/><path class="cls-5" d="M588.81,520.37H24.06A24,24,0,0,1,.62,491L46,292.66H566.88L612.26,491A24.05,24.05,0,0,1,588.81,520.37Z"/><path class="cls-6" d="M588.81,520.37A24.05,24.05,0,0,0,612.26,491L566.88,292.66H46L273.71,520.37Z"/><path class="cls-7" d="M566.88,520.37H46v.8l57.73,57.73H542.82a24,24,0,0,0,24.06-24Z"/><path class="cls-8" d="M612.26,491,566.88,292.66V58.53a24.06,24.06,0,0,0-24-24.05H531.45a24.05,24.05,0,0,1,24,24.05V292.66L600.89,491a24.06,24.06,0,0,1-23.45,29.42h11.38A24,24,0,0,0,612.26,491Z"/><path class="cls-9" d="M204.53,77.33a22.39,22.39,0,0,1-7.14-16.39V34.48h44.9L279,71.15a62.31,62.31,0,0,1,18.26,44.07h0c0,12.11-9.32,22.52-21.42,23.07a22.38,22.38,0,0,1-17.42-7.11Z"/><path class="cls-10" d="M219.84,83.39h0a22.45,22.45,0,0,1-22.45-22.45V22.45A22.45,22.45,0,0,1,219.84,0h0a22.45,22.45,0,0,1,22.45,22.45V60.94A22.45,22.45,0,0,1,219.84,83.39Z"/><path class="cls-11" d="M219.84,0V83.39a22.45,22.45,0,0,0,22.45-22.45V22.45A22.45,22.45,0,0,0,219.84,0Z"/><path class="cls-12" d="M367.7,77.33a22.39,22.39,0,0,1-7.14-16.39V34.48h44.9l36.67,36.67a62.3,62.3,0,0,1,18.25,44.07h0c0,12.11-9.31,22.52-21.41,23.07a22.38,22.38,0,0,1-17.42-7.11Z"/><path class="cls-13" d="M383,83.39h0a22.45,22.45,0,0,1-22.45-22.45V22.45A22.45,22.45,0,0,1,383,0h0a22.45,22.45,0,0,1,22.45,22.45V60.94A22.45,22.45,0,0,1,383,83.39Z"/><path class="cls-14" d="M383,0V83.39a22.45,22.45,0,0,0,22.45-22.45V22.45A22.45,22.45,0,0,0,383,0Z"/><text class="cls-15" transform="translate(184.38 408.16) scale(0.93 1)">R</text></g></g></svg>